<?xml version="1.0" standalone="no"?>
<!DOCTYPE svg PUBLIC "-//W3C//DTD SVG 20010904//EN"
 "http://www.w3.org/TR/2001/REC-SVG-20010904/DTD/svg10.dtd">
<svg version="1.0" xmlns="http://www.w3.org/2000/svg"
 width="1024.000000pt" height="1024.000000pt" viewBox="0 0 1024.000000 1024.000000"
 preserveAspectRatio="xMidYMid meet">

<g transform="translate(0.000000,1024.000000) scale(0.100000,-0.100000)"
fill="#000000" stroke="none">
<path d="M2555 7581 c20 -8 22 -8 -88 -27 -83 -14 -137 -25 -203 -44 -41 -11
-80 -17 -86 -14 -6 4 -8 2 -5 -3 7 -11 -22 -28 -31 -18 -3 3 1 5 8 5 7 0 11 3
8 6 -3 3 -39 -11 -79 -32 -81 -40 -203 -123 -195 -131 3 -3 14 0 23 8 16 13
17 12 4 -4 -8 -10 -21 -15 -31 -12 -10 3 -24 -4 -36 -17 -12 -13 -13 -18 -4
-13 9 5 8 0 -4 -13 -21 -25 -36 -31 -16 -7 7 8 8 15 2 15 -15 0 -33 -26 -24
-35 4 -5 2 -5 -4 -2 -15 9 -58 -38 -49 -54 5 -7 4 -10 -2 -6 -10 7 -46 -29
-96 -94 -29 -39 -35 -55 -14 -43 8 5 8 2 -2 -9 -16 -20 -26 -23 -15 -4 5 8 2
7 -10 -2 -9 -8 -14 -21 -11 -30 3 -8 3 -12 -1 -8 -9 8 -25 -15 -76 -107 -250
-452 -408 -1338 -369 -2077 14 -276 31 -417 76 -648 118 -598 285 -947 581
-1212 250 -224 600 -333 960 -299 359 33 662 229 713 460 11 53 58 634 63 800
l3 75 -43 1 c-23 1 -48 -4 -56 -10 -7 -6 -26 -45 -41 -86 -15 -41 -48 -117
-72 -168 -24 -51 -40 -98 -37 -104 4 -6 3 -8 -3 -5 -6 4 -27 -21 -47 -56 -20
-34 -61 -91 -91 -126 -30 -35 -51 -69 -48 -74 3 -6 1 -7 -6 -3 -6 4 -30 -9
-56 -32 -25 -22 -80 -57 -122 -78 -68 -33 -89 -39 -163 -42 -242 -11 -422 154
-534 489 -120 360 -195 1075 -183 1729 13 663 99 1103 269 1380 67 110 132
173 214 212 215 100 436 -5 591 -282 44 -79 104 -225 154 -375 53 -159 69
-179 140 -173 87 9 82 -31 65 539 -17 564 -24 699 -36 699 -5 0 -10 -5 -12
-12 -3 -7 -14 -9 -31 -4 -18 4 -25 11 -20 19 4 8 1 7 -10 -1 -12 -10 -23 -11
-44 -4 l-28 10 30 2 c21 2 24 4 10 7 -11 2 -55 16 -97 29 -43 14 -83 22 -89
18 -7 -4 -9 -3 -6 3 13 21 -186 77 -233 67 -19 -4 -21 -3 -11 4 11 8 2 12 -34
18 -34 5 -50 3 -53 -5 -4 -13 -62 -15 -62 -2 0 4 12 6 26 3 19 -3 25 -1 20 7
-5 7 -49 11 -134 10 -73 0 -119 -4 -107 -8z m175 -10 c0 -10 -39 -11 -45 -2
-2 5 7 9 20 9 14 0 25 -3 25 -7z m140 -11 c18 -12 2 -12 -25 0 -13 6 -15 9 -5
9 8 0 22 -4 30 -9z m120 -30 c0 -5 -7 -7 -15 -4 -8 4 -15 8 -15 10 0 2 7 4 15
4 8 0 15 -4 15 -10z m130 -44 c0 -3 -13 1 -30 7 -16 6 -30 15 -30 19 0 5 14 2
30 -7 17 -9 30 -17 30 -19z m-1040 -50 c-8 -8 -26 -17 -40 -20 -19 -5 -17 -2
10 13 42 24 49 26 30 7z m-85 -48 c-11 -6 -30 -20 -43 -32 -15 -13 -21 -15
-17 -5 6 16 53 48 70 48 6 0 1 -5 -10 -11z m-217 -172 c-7 -8 -15 -12 -17 -11
-5 6 10 25 20 25 5 0 4 -6 -3 -14z m1710 -3263 c-10 -2 -26 -2 -35 0 -10 3 -2
5 17 5 19 0 27 -2 18 -5z m-389 -616 c-2 -1 -13 -9 -24 -17 -19 -14 -19 -14
-6 3 7 9 18 17 24 17 6 0 8 -1 6 -3z m-94 -73 c-24 -20 -121 -64 -138 -64 -13
0 131 76 148 78 6 1 1 -6 -10 -14z m-350 -82 c-3 -3 -11 0 -18 7 -9 10 -8 11
6 5 10 -3 15 -9 12 -12z m190 8 c-3 -5 -13 -10 -21 -10 -8 0 -12 5 -9 10 3 6
13 10 21 10 8 0 12 -4 9 -10z m-45 -12 c0 -5 -29 -8 -65 -8 -36 0 -65 3 -65 8
0 4 29 7 65 7 36 0 65 -3 65 -7z"/>
<path d="M2478 7573 c12 -2 30 -2 40 0 9 3 -1 5 -23 4 -22 0 -30 -2 -17 -4z"/>
<path d="M2385 7560 c-27 -7 -28 -8 -5 -8 14 0 34 3 45 8 25 11 2 11 -40 0z"/>
<path d="M2266 7534 c-26 -9 -46 -17 -44 -20 3 -2 31 4 64 15 32 10 52 19 44
19 -8 0 -37 -6 -64 -14z"/>
<path d="M3772 7507 c-6 -7 -16 -53 -21 -102 -13 -111 -41 -678 -41 -826 0
-159 14 -152 146 69 134 226 212 301 349 337 77 20 423 22 430 3 9 -29 13
-3609 4 -3708 -15 -167 -43 -268 -94 -345 -14 -19 -24 -41 -22 -47 1 -7 -3
-12 -8 -13 -14 0 -105 -75 -105 -86 0 -5 261 -9 600 -9 527 0 600 2 600 15 0
8 -4 15 -10 15 -19 0 -131 123 -154 169 -30 60 -54 133 -67 207 -11 63 -23
3650 -12 3757 l5 57 167 0 c182 0 236 -10 321 -56 89 -48 196 -185 300 -381
42 -80 64 -103 82 -85 8 8 -35 901 -48 990 -4 23 -10 44 -14 47 -5 3 -6 -3 -3
-14 5 -21 -12 -37 -22 -21 -3 5 -25 10 -48 11 -23 0 -51 4 -62 9 -13 5 -1 7
37 6 32 -2 62 0 68 4 6 4 -19 8 -56 9 -37 1 -70 -2 -73 -7 -8 -12 -71 -23 -71
-12 0 5 12 11 28 13 22 3 20 4 -10 6 -29 1 -36 -2 -32 -14 4 -8 1 -15 -5 -15
-6 0 -11 7 -11 15 0 18 -16 20 -26 3 -4 -7 -3 -8 4 -4 7 4 12 2 12 -4 0 -7 -7
-9 -16 -6 -9 3 -21 6 -27 6 -7 0 -6 4 3 10 10 7 -10 9 -65 8 -75 -1 -77 -2
-25 -7 75 -8 52 -18 -43 -19 -73 0 -91 9 -42 21 11 3 -11 5 -50 4 -55 0 -62
-1 -30 -6 36 -6 38 -7 15 -14 -35 -10 -72 -9 -66 2 3 5 -1 11 -9 14 -9 4 -12
1 -9 -7 4 -10 -39 -12 -206 -12 -115 1 -210 5 -210 9 0 4 18 7 40 5 22 -1 43
1 46 5 4 4 -40 7 -97 7 -71 0 -99 -3 -89 -10 8 -5 11 -10 5 -11 -5 -1 -17 -2
-25 -3 -8 -1 -24 4 -36 10 -17 10 -22 9 -33 -7 -6 -11 -16 -17 -22 -13 -6 3
-3 11 8 20 10 7 14 14 9 14 -5 0 -17 -7 -27 -16 -17 -16 -139 -27 -139 -13 0
12 -79 2 -97 -12 -16 -12 -17 -12 -6 1 11 14 -6 16 -161 14 -95 0 -178 -4
-185 -8 -6 -4 -11 -3 -11 2 0 9 -51 7 -78 -3 -7 -2 -18 4 -24 15 -15 23 -33
27 -24 5 4 -12 -3 -15 -35 -15 -25 0 -38 4 -34 10 4 6 11 8 16 5 5 -4 17 -1
26 4 15 9 13 10 -12 11 -17 0 -41 -7 -53 -16 -12 -8 -26 -13 -31 -10 -5 4 -12
0 -14 -6 -4 -8 -6 -7 -6 4 -1 10 8 18 22 21 12 2 -46 5 -129 6 -113 1 -154 -2
-162 -12z m238 -9 c0 -8 -35 -10 -163 -10 -55 0 -67 -2 -63 -14 3 -8 1 -14 -4
-14 -10 0 -14 33 -5 41 8 8 235 5 235 -3z m1105 2 c-3 -5 -19 -10 -36 -10 -16
0 -29 5 -29 10 0 6 16 10 36 10 21 0 33 -4 29 -10z m-503 -4482 c-7 -7 -12 -8
-12 -2 0 6 3 14 7 17 3 4 9 5 12 2 2 -3 -1 -11 -7 -17z m903 -148 c3 -5 2 -10
-4 -10 -5 0 -13 5 -16 10 -3 6 -2 10 4 10 5 0 13 -4 16 -10z m-1025 -25 c-7
-8 -9 -15 -6 -15 12 0 -17 -26 -37 -33 -12 -5 -7 6 14 28 33 35 53 48 29 20z"/>
<path d="M4220 7512 c0 -7 271 -5 300 2 8 2 -56 4 -142 4 -87 1 -158 -2 -158
-6z"/>
<path d="M4678 7513 c18 -2 45 -2 60 0 15 2 0 4 -33 4 -33 0 -45 -2 -27 -4z"/>
<path d="M4770 7512 c0 -4 27 -7 59 -7 33 -1 58 2 56 5 -6 9 -115 11 -115 2z"/>
<path d="M4985 7510 c4 -6 11 -8 16 -5 14 9 11 15 -7 15 -8 0 -12 -5 -9 -10z"/>
<path d="M5268 7513 c7 -3 16 -2 19 1 4 3 -2 6 -13 5 -11 0 -14 -3 -6 -6z"/>
<path d="M5312 7514 c8 -7 208 -8 215 0 4 3 -45 6 -107 6 -62 0 -111 -3 -108
-6z"/>
<path d="M6385 7500 c-3 -6 12 -29 35 -53 55 -57 107 -165 126 -262 25 -125
30 -448 32 -2215 2 -1101 -1 -1658 -8 -1728 -19 -185 -65 -293 -171 -399 -28
-28 -48 -56 -45 -62 9 -15 1176 -16 1176 -1 0 6 -4 10 -10 10 -5 0 -38 28 -72
62 -34 34 -58 54 -55 44 4 -11 3 -15 -4 -11 -5 4 -8 12 -6 18 2 7 -9 37 -25
69 -15 31 -38 91 -50 135 -22 78 -23 83 -26 1056 l-3 977 391 0 390 0 0 -962
c0 -799 -3 -977 -15 -1046 -14 -83 -56 -192 -81 -213 -8 -6 -14 -17 -14 -23 0
-6 5 -4 11 4 9 13 10 13 6 0 -2 -8 -9 -14 -15 -13 -5 1 -16 -5 -24 -14 -11
-14 -11 -16 2 -8 9 5 12 5 7 -1 -5 -5 -12 -9 -17 -9 -15 0 -81 -66 -75 -75 4
-6 238 -10 606 -10 473 0 599 3 599 13 -1 15 -117 120 -123 109 -2 -4 -2 -1
-1 5 2 7 -10 34 -26 60 -41 69 -67 153 -80 268 -8 72 -10 631 -8 1985 l3 1885
24 85 c33 120 75 204 132 263 27 28 49 52 49 54 0 1 -7 -1 -17 -4 -11 -4 -14
-3 -9 5 6 10 -123 11 -556 9 -310 -3 -571 -5 -581 -6 -14 -2 -8 -13 29 -54 52
-58 105 -161 129 -252 26 -100 35 -311 37 -938 l3 -598 -382 1 c-301 0 -382
-2 -387 -12 -3 -7 -4 329 -2 747 2 667 4 767 19 821 27 100 63 171 116 227 28
30 51 57 51 60 0 12 -1078 8 -1085 -3z m72 -6 c-3 -3 -12 -4 -19 -1 -8 3 -5 6
6 6 11 1 17 -2 13 -5z m283 -4 c0 -5 -4 -10 -9 -10 -6 0 -13 5 -16 10 -3 6 1
10 9 10 9 0 16 -4 16 -10z m113 3 c-18 -2 -48 -2 -65 0 -18 2 -4 4 32 4 36 0
50 -2 33 -4z m210 0 c-7 -2 -19 -2 -25 0 -7 3 -2 5 12 5 14 0 19 -2 13 -5z
m60 0 c-7 -2 -19 -2 -25 0 -7 3 -2 5 12 5 14 0 19 -2 13 -5z m60 0 c-7 -2 -21
-2 -30 0 -10 3 -4 5 12 5 17 0 24 -2 18 -5z m124 1 c-3 -3 -12 -4 -19 -1 -8 3
-5 6 6 6 11 1 17 -2 13 -5z m121 -1 c-10 -2 -28 -2 -40 0 -13 2 -5 4 17 4 22
1 32 -1 23 -4z m489 1 c-3 -3 -12 -4 -19 -1 -8 3 -5 6 6 6 11 1 17 -2 13 -5z
m56 -1 c-7 -2 -19 -2 -25 0 -7 3 -2 5 12 5 14 0 19 -2 13 -5z m60 0 c-7 -2
-21 -2 -30 0 -10 3 -4 5 12 5 17 0 24 -2 18 -5z m120 0 c-18 -2 -48 -2 -65 0
-18 2 -4 4 32 4 36 0 50 -2 33 -4z m64 1 c-3 -3 -12 -4 -19 -1 -8 3 -5 6 6 6
11 1 17 -2 13 -5z m20 -16 c-3 -8 -6 -5 -6 6 -1 11 2 17 5 13 3 -3 4 -12 1
-19z m131 15 c-21 -2 -55 -2 -75 0 -21 2 -4 4 37 4 41 0 58 -2 38 -4z m69 1
c-3 -3 -12 -4 -19 -1 -8 3 -5 6 6 6 11 1 17 -2 13 -5z m47 -3 c4 -5 -3 -7 -14
-4 -23 6 -26 13 -6 13 8 0 17 -4 20 -9z m69 2 c-7 -2 -21 -2 -30 0 -10 3 -4 5
12 5 17 0 24 -2 18 -5z m190 0 c-7 -2 -19 -2 -25 0 -7 3 -2 5 12 5 14 0 19 -2
13 -5z m42 -3 c-3 -5 -12 -10 -18 -10 -7 0 -6 4 3 10 19 12 23 12 15 0z m113
3 c-10 -2 -26 -2 -35 0 -10 3 -2 5 17 5 19 0 27 -2 18 -5z m-1515 -1850 c-7
-2 -21 -2 -30 0 -10 3 -4 5 12 5 17 0 24 -2 18 -5z m185 0 c-10 -2 -26 -2 -35
0 -10 3 -2 5 17 5 19 0 27 -2 18 -5z m445 0 c-7 -2 -19 -2 -25 0 -7 3 -2 5 12
5 14 0 19 -2 13 -5z m-582 -2790 c13 -15 12 -15 -8 -4 -24 12 -29 21 -14 21 5
0 15 -7 22 -17z m1530 0 c13 -17 13 -17 -6 -3 -11 8 -22 16 -24 17 -2 2 0 3 6
3 6 0 17 -8 24 -17z m-2541 -16 c0 -2 -10 -12 -22 -23 l-23 -19 19 23 c18 21
26 27 26 19z m1490 -11 c0 -2 -7 -9 -15 -16 -13 -11 -14 -10 -9 4 5 14 24 23
24 12z m1105 -15 c3 -5 1 -12 -4 -15 -5 -3 -11 1 -15 9 -6 16 9 21 19 6z"/>
</g>
</svg>
